<svg xmlns="http://www.w3.org/2000/svg" xmlns:xlink="http://www.w3.org/1999/xlink" width="500" zoomAndPan="magnify" viewBox="0 0 375 374.999991" height="500" preserveAspectRatio="xMidYMid meet" version="1.0"><defs><g/><clipPath id="id1"><path d="M 95.492188 119.007812 L 149.492188 119.007812 L 149.492188 227 L 95.492188 227 Z M 95.492188 119.007812 " clip-rule="nonzero"/></clipPath><clipPath id="id2"><path d="M 149.484375 200.160156 L 149.484375 226.996094 C 119.664062 226.996094 95.492188 202.816406 95.492188 173 C 95.492188 143.183594 119.664062 119.011719 149.484375 119.011719 L 149.484375 145.84375 C 134.488281 145.84375 122.320312 158.003906 122.320312 173.007812 C 122.320312 188.007812 134.488281 200.160156 149.484375 200.160156 Z M 149.484375 200.160156 " clip-rule="nonzero"/></clipPath><linearGradient x1="45.495276" gradientTransform="matrix(0.586319, 0, 0, 0.586255, 95.491877, 119.012297)" y1="184.725189" x2="47.674498" gradientUnits="userSpaceOnUse" y2="-0.522494" id="id3"><stop stop-opacity="1" stop-color="rgb(88.20343%, 83.833313%, 82.566833%)" offset="0"/><stop stop-opacity="1" stop-color="rgb(88.040161%, 83.609009%, 82.324219%)" offset="0.00390625"/><stop stop-opacity="1" stop-color="rgb(87.876892%, 83.384705%, 82.08313%)" offset="0.0078125"/><stop stop-opacity="1" stop-color="rgb(87.712097%, 83.1604%, 81.840515%)" offset="0.0117187"/><stop stop-opacity="1" stop-color="rgb(87.548828%, 82.936096%, 81.599426%)" offset="0.015625"/><stop stop-opacity="1" stop-color="rgb(87.384033%, 82.711792%, 81.356812%)" offset="0.0195313"/><stop stop-opacity="1" stop-color="rgb(87.220764%, 82.487488%, 81.115723%)" offset="0.0234375"/><stop stop-opacity="1" stop-color="rgb(87.057495%, 82.263184%, 80.873108%)" offset="0.0273437"/><stop stop-opacity="1" stop-color="rgb(86.894226%, 82.038879%, 80.630493%)" offset="0.03125"/><stop stop-opacity="1" stop-color="rgb(86.729431%, 81.813049%, 80.387878%)" offset="0.0351562"/><stop stop-opacity="1" stop-color="rgb(86.566162%, 81.588745%, 80.14679%)" offset="0.0390625"/><stop stop-opacity="1" stop-color="rgb(86.402893%, 81.364441%, 79.904175%)" offset="0.0429687"/><stop stop-opacity="1" stop-color="rgb(86.239624%, 81.140137%, 79.663086%)" offset="0.046875"/><stop stop-opacity="1" stop-color="rgb(86.074829%, 80.915833%, 79.420471%)" offset="0.0507812"/><stop stop-opacity="1" stop-color="rgb(85.91156%, 80.691528%, 79.179382%)" offset="0.0546875"/><stop stop-opacity="1" stop-color="rgb(85.746765%, 80.467224%, 78.936768%)" offset="0.0585938"/><stop stop-opacity="1" stop-color="rgb(85.583496%, 80.24292%, 78.695679%)" offset="0.0625"/><stop stop-opacity="1" stop-color="rgb(85.420227%, 80.018616%, 78.453064%)" offset="0.0664062"/><stop stop-opacity="1" stop-color="rgb(85.256958%, 79.794312%, 78.210449%)" offset="0.0703125"/><stop stop-opacity="1" stop-color="rgb(85.092163%, 79.570007%, 77.967834%)" offset="0.0742188"/><stop stop-opacity="1" stop-color="rgb(84.928894%, 79.345703%, 77.726746%)" offset="0.078125"/><stop stop-opacity="1" stop-color="rgb(84.764099%, 79.121399%, 77.484131%)" offset="0.0820313"/><stop stop-opacity="1" stop-color="rgb(84.60083%, 78.897095%, 77.243042%)" offset="0.0859375"/><stop stop-opacity="1" stop-color="rgb(84.437561%, 78.671265%, 77.000427%)" offset="0.0898438"/><stop stop-opacity="1" stop-color="rgb(84.274292%, 78.44696%, 76.759338%)" offset="0.09375"/><stop stop-opacity="1" stop-color="rgb(84.109497%, 78.222656%, 76.516724%)" offset="0.0976562"/><stop stop-opacity="1" stop-color="rgb(83.946228%, 77.998352%, 76.275635%)" offset="0.101562"/><stop stop-opacity="1" stop-color="rgb(83.782959%, 77.774048%, 76.03302%)" offset="0.105469"/><stop stop-opacity="1" stop-color="rgb(83.61969%, 77.549744%, 75.790405%)" offset="0.109375"/><stop stop-opacity="1" stop-color="rgb(83.454895%, 77.325439%, 75.547791%)" offset="0.113281"/><stop stop-opacity="1" stop-color="rgb(83.291626%, 77.101135%, 75.306702%)" offset="0.117188"/><stop stop-opacity="1" stop-color="rgb(83.126831%, 76.876831%, 75.064087%)" offset="0.121094"/><stop stop-opacity="1" stop-color="rgb(82.963562%, 76.652527%, 74.822998%)" offset="0.125"/><stop stop-opacity="1" stop-color="rgb(82.800293%, 76.428223%, 74.580383%)" offset="0.128906"/><stop stop-opacity="1" stop-color="rgb(82.637024%, 76.203918%, 74.339294%)" offset="0.132812"/><stop stop-opacity="1" stop-color="rgb(82.472229%, 75.978088%, 74.09668%)" offset="0.136719"/><stop stop-opacity="1" stop-color="rgb(82.30896%, 75.753784%, 73.855591%)" offset="0.140625"/><stop stop-opacity="1" stop-color="rgb(82.145691%, 75.52948%, 73.612976%)" offset="0.144531"/><stop stop-opacity="1" stop-color="rgb(81.982422%, 75.305176%, 73.371887%)" offset="0.148438"/><stop stop-opacity="1" stop-color="rgb(81.817627%, 75.080872%, 73.129272%)" offset="0.152344"/><stop stop-opacity="1" stop-color="rgb(81.654358%, 74.856567%, 72.886658%)" offset="0.15625"/><stop stop-opacity="1" stop-color="rgb(81.489563%, 74.632263%, 72.644043%)" offset="0.160156"/><stop stop-opacity="1" stop-color="rgb(81.326294%, 74.407959%, 72.402954%)" offset="0.164063"/><stop stop-opacity="1" stop-color="rgb(81.163025%, 74.183655%, 72.160339%)" offset="0.167969"/><stop stop-opacity="1" stop-color="rgb(80.999756%, 73.959351%, 71.91925%)" offset="0.171875"/><stop stop-opacity="1" stop-color="rgb(80.834961%, 73.735046%, 71.676636%)" offset="0.175781"/><stop stop-opacity="1" stop-color="rgb(80.671692%, 73.510742%, 71.435547%)" offset="0.179688"/><stop stop-opacity="1" stop-color="rgb(80.506897%, 73.286438%, 71.192932%)" offset="0.183594"/><stop stop-opacity="1" stop-color="rgb(80.343628%, 73.062134%, 70.951843%)" offset="0.1875"/><stop stop-opacity="1" stop-color="rgb(80.180359%, 72.836304%, 70.709229%)" offset="0.191406"/><stop stop-opacity="1" stop-color="rgb(80.01709%, 72.612%, 70.466614%)" offset="0.195313"/><stop stop-opacity="1" stop-color="rgb(79.852295%, 72.387695%, 70.223999%)" offset="0.199219"/><stop stop-opacity="1" stop-color="rgb(79.689026%, 72.163391%, 69.98291%)" offset="0.203125"/><stop stop-opacity="1" stop-color="rgb(79.525757%, 71.939087%, 69.740295%)" offset="0.207031"/><stop stop-opacity="1" stop-color="rgb(79.362488%, 71.714783%, 69.499207%)" offset="0.210937"/><stop stop-opacity="1" stop-color="rgb(79.197693%, 71.490479%, 69.256592%)" offset="0.214844"/><stop stop-opacity="1" stop-color="rgb(79.034424%, 71.266174%, 69.015503%)" offset="0.21875"/><stop stop-opacity="1" stop-color="rgb(78.869629%, 71.04187%, 68.772888%)" offset="0.222656"/><stop stop-opacity="1" stop-color="rgb(78.70636%, 70.817566%, 68.531799%)" offset="0.226563"/><stop stop-opacity="1" stop-color="rgb(78.543091%, 70.593262%, 68.289185%)" offset="0.230469"/><stop stop-opacity="1" stop-color="rgb(78.379822%, 70.368958%, 68.04657%)" offset="0.234375"/><stop stop-opacity="1" stop-color="rgb(78.215027%, 70.144653%, 67.803955%)" offset="0.238281"/><stop stop-opacity="1" stop-color="rgb(78.051758%, 69.920349%, 67.562866%)" offset="0.242187"/><stop stop-opacity="1" stop-color="rgb(77.886963%, 69.694519%, 67.320251%)" offset="0.246094"/><stop stop-opacity="1" stop-color="rgb(77.723694%, 69.470215%, 67.079163%)" offset="0.25"/><stop stop-opacity="1" stop-color="rgb(77.560425%, 69.245911%, 66.836548%)" offset="0.253906"/><stop stop-opacity="1" stop-color="rgb(77.397156%, 69.021606%, 66.595459%)" offset="0.257813"/><stop stop-opacity="1" stop-color="rgb(77.232361%, 68.797302%, 66.352844%)" offset="0.261719"/><stop stop-opacity="1" stop-color="rgb(77.069092%, 68.572998%, 66.111755%)" offset="0.265625"/><stop stop-opacity="1" stop-color="rgb(76.905823%, 68.348694%, 65.869141%)" offset="0.269531"/><stop stop-opacity="1" stop-color="rgb(76.742554%, 68.12439%, 65.626526%)" offset="0.273437"/><stop stop-opacity="1" stop-color="rgb(76.577759%, 67.900085%, 65.383911%)" offset="0.277344"/><stop stop-opacity="1" stop-color="rgb(76.41449%, 67.675781%, 65.142822%)" offset="0.28125"/><stop stop-opacity="1" stop-color="rgb(76.249695%, 67.451477%, 64.900208%)" offset="0.285156"/><stop stop-opacity="1" stop-color="rgb(76.086426%, 67.227173%, 64.659119%)" offset="0.289062"/><stop stop-opacity="1" stop-color="rgb(75.923157%, 67.002869%, 64.416504%)" offset="0.292969"/><stop stop-opacity="1" stop-color="rgb(75.759888%, 66.778564%, 64.175415%)" offset="0.296875"/><stop stop-opacity="1" stop-color="rgb(75.595093%, 66.552734%, 63.9328%)" offset="0.300781"/><stop stop-opacity="1" stop-color="rgb(75.431824%, 66.32843%, 63.691711%)" offset="0.304687"/><stop stop-opacity="1" stop-color="rgb(75.267029%, 66.104126%, 63.449097%)" offset="0.308594"/><stop stop-opacity="1" stop-color="rgb(75.10376%, 65.879822%, 63.208008%)" offset="0.3125"/><stop stop-opacity="1" stop-color="rgb(74.940491%, 65.655518%, 62.965393%)" offset="0.316406"/><stop stop-opacity="1" stop-color="rgb(74.777222%, 65.431213%, 62.722778%)" offset="0.320312"/><stop stop-opacity="1" stop-color="rgb(74.612427%, 65.206909%, 62.480164%)" offset="0.324219"/><stop stop-opacity="1" stop-color="rgb(74.449158%, 64.982605%, 62.239075%)" offset="0.328125"/><stop stop-opacity="1" stop-color="rgb(74.285889%, 64.758301%, 61.99646%)" offset="0.332031"/><stop stop-opacity="1" stop-color="rgb(74.12262%, 64.533997%, 61.755371%)" offset="0.335937"/><stop stop-opacity="1" stop-color="rgb(73.957825%, 64.309692%, 61.512756%)" offset="0.339844"/><stop stop-opacity="1" stop-color="rgb(73.794556%, 64.085388%, 61.271667%)" offset="0.34375"/><stop stop-opacity="1" stop-color="rgb(73.629761%, 63.861084%, 61.029053%)" offset="0.347656"/><stop stop-opacity="1" stop-color="rgb(73.466492%, 63.63678%, 60.787964%)" offset="0.351562"/><stop stop-opacity="1" stop-color="rgb(73.303223%, 63.41095%, 60.545349%)" offset="0.355469"/><stop stop-opacity="1" stop-color="rgb(73.139954%, 63.186646%, 60.302734%)" offset="0.359375"/><stop stop-opacity="1" stop-color="rgb(72.975159%, 62.962341%, 60.06012%)" offset="0.363281"/><stop stop-opacity="1" stop-color="rgb(72.81189%, 62.738037%, 59.819031%)" offset="0.367188"/><stop stop-opacity="1" stop-color="rgb(72.647095%, 62.513733%, 59.576416%)" offset="0.371094"/><stop stop-opacity="1" stop-color="rgb(72.483826%, 62.289429%, 59.335327%)" offset="0.375"/><stop stop-opacity="1" stop-color="rgb(72.320557%, 62.065125%, 59.092712%)" offset="0.378906"/><stop stop-opacity="1" stop-color="rgb(72.157288%, 61.84082%, 58.851624%)" offset="0.382812"/><stop stop-opacity="1" stop-color="rgb(71.992493%, 61.616516%, 58.609009%)" offset="0.386719"/><stop stop-opacity="1" stop-color="rgb(71.829224%, 61.392212%, 58.36792%)" offset="0.390625"/><stop stop-opacity="1" stop-color="rgb(71.665955%, 61.167908%, 58.125305%)" offset="0.394531"/><stop stop-opacity="1" stop-color="rgb(71.502686%, 60.943604%, 57.88269%)" offset="0.398438"/><stop stop-opacity="1" stop-color="rgb(71.337891%, 60.717773%, 57.640076%)" offset="0.402344"/><stop stop-opacity="1" stop-color="rgb(71.174622%, 60.493469%, 57.398987%)" offset="0.40625"/><stop stop-opacity="1" stop-color="rgb(71.009827%, 60.269165%, 57.156372%)" offset="0.410156"/><stop stop-opacity="1" stop-color="rgb(70.846558%, 60.044861%, 56.915283%)" offset="0.414063"/><stop stop-opacity="1" stop-color="rgb(70.683289%, 59.820557%, 56.672668%)" offset="0.417969"/><stop stop-opacity="1" stop-color="rgb(70.52002%, 59.596252%, 56.43158%)" offset="0.421875"/><stop stop-opacity="1" stop-color="rgb(70.355225%, 59.371948%, 56.188965%)" offset="0.425781"/><stop stop-opacity="1" stop-color="rgb(70.191956%, 59.147644%, 55.947876%)" offset="0.429688"/><stop stop-opacity="1" stop-color="rgb(70.027161%, 58.92334%, 55.705261%)" offset="0.433594"/><stop stop-opacity="1" stop-color="rgb(69.863892%, 58.699036%, 55.462646%)" offset="0.4375"/><stop stop-opacity="1" stop-color="rgb(69.700623%, 58.474731%, 55.220032%)" offset="0.441406"/><stop stop-opacity="1" stop-color="rgb(69.537354%, 58.250427%, 54.978943%)" offset="0.445313"/><stop stop-opacity="1" stop-color="rgb(69.372559%, 58.026123%, 54.736328%)" offset="0.449219"/><stop stop-opacity="1" stop-color="rgb(69.20929%, 57.801819%, 54.495239%)" offset="0.453125"/><stop stop-opacity="1" stop-color="rgb(69.046021%, 57.575989%, 54.252625%)" offset="0.457031"/><stop stop-opacity="1" stop-color="rgb(68.882751%, 57.351685%, 54.011536%)" offset="0.460938"/><stop stop-opacity="1" stop-color="rgb(68.717957%, 57.12738%, 53.768921%)" offset="0.464844"/><stop stop-opacity="1" stop-color="rgb(68.554688%, 56.903076%, 53.527832%)" offset="0.46875"/><stop stop-opacity="1" stop-color="rgb(68.389893%, 56.678772%, 53.285217%)" offset="0.472656"/><stop stop-opacity="1" stop-color="rgb(68.226624%, 56.454468%, 53.044128%)" offset="0.476562"/><stop stop-opacity="1" stop-color="rgb(68.063354%, 56.230164%, 52.801514%)" offset="0.480469"/><stop stop-opacity="1" stop-color="rgb(67.900085%, 56.005859%, 52.558899%)" offset="0.484375"/><stop stop-opacity="1" stop-color="rgb(67.735291%, 55.781555%, 52.316284%)" offset="0.488281"/><stop stop-opacity="1" stop-color="rgb(67.572021%, 55.557251%, 52.075195%)" offset="0.492187"/><stop stop-opacity="1" stop-color="rgb(67.407227%, 55.332947%, 51.832581%)" offset="0.496094"/><stop stop-opacity="1" stop-color="rgb(67.243958%, 55.108643%, 51.591492%)" offset="0.5"/><stop stop-opacity="1" stop-color="rgb(67.080688%, 54.884338%, 51.348877%)" offset="0.503906"/><stop stop-opacity="1" stop-color="rgb(66.917419%, 54.660034%, 51.107788%)" offset="0.507812"/><stop stop-opacity="1" stop-color="rgb(66.752625%, 54.434204%, 50.865173%)" offset="0.511719"/><stop stop-opacity="1" stop-color="rgb(66.589355%, 54.2099%, 50.624084%)" offset="0.515625"/><stop stop-opacity="1" stop-color="rgb(66.426086%, 53.985596%, 50.38147%)" offset="0.519531"/><stop stop-opacity="1" stop-color="rgb(66.262817%, 53.761292%, 50.138855%)" offset="0.523438"/><stop stop-opacity="1" stop-color="rgb(66.098022%, 53.536987%, 49.89624%)" offset="0.527344"/><stop stop-opacity="1" stop-color="rgb(65.934753%, 53.312683%, 49.655151%)" offset="0.53125"/><stop stop-opacity="1" stop-color="rgb(65.769958%, 53.088379%, 49.412537%)" offset="0.535156"/><stop stop-opacity="1" stop-color="rgb(65.606689%, 52.864075%, 49.171448%)" offset="0.539062"/><stop stop-opacity="1" stop-color="rgb(65.44342%, 52.639771%, 48.928833%)" offset="0.542969"/><stop stop-opacity="1" stop-color="rgb(65.280151%, 52.415466%, 48.687744%)" offset="0.546875"/><stop stop-opacity="1" stop-color="rgb(65.115356%, 52.191162%, 48.445129%)" offset="0.550781"/><stop stop-opacity="1" stop-color="rgb(64.952087%, 51.966858%, 48.204041%)" offset="0.554687"/><stop stop-opacity="1" stop-color="rgb(64.787292%, 51.742554%, 47.961426%)" offset="0.558594"/><stop stop-opacity="1" stop-color="rgb(64.624023%, 51.51825%, 47.718811%)" offset="0.5625"/><stop stop-opacity="1" stop-color="rgb(64.460754%, 51.292419%, 47.476196%)" offset="0.566406"/><stop stop-opacity="1" stop-color="rgb(64.297485%, 51.068115%, 47.235107%)" offset="0.570312"/><stop stop-opacity="1" stop-color="rgb(64.13269%, 50.843811%, 46.992493%)" offset="0.574219"/><stop stop-opacity="1" stop-color="rgb(63.969421%, 50.619507%, 46.751404%)" offset="0.578125"/><stop stop-opacity="1" stop-color="rgb(63.806152%, 50.395203%, 46.508789%)" offset="0.582031"/><stop stop-opacity="1" stop-color="rgb(63.642883%, 50.170898%, 46.2677%)" offset="0.585938"/><stop stop-opacity="1" stop-color="rgb(63.478088%, 49.946594%, 46.025085%)" offset="0.589844"/><stop stop-opacity="1" stop-color="rgb(63.314819%, 49.72229%, 45.783997%)" offset="0.59375"/><stop stop-opacity="1" stop-color="rgb(63.150024%, 49.497986%, 45.541382%)" offset="0.597656"/><stop stop-opacity="1" stop-color="rgb(62.986755%, 49.273682%, 45.298767%)" offset="0.601562"/><stop stop-opacity="1" stop-color="rgb(62.823486%, 49.049377%, 45.056152%)" offset="0.605469"/><stop stop-opacity="1" stop-color="rgb(62.660217%, 48.825073%, 44.815063%)" offset="0.609375"/><stop stop-opacity="1" stop-color="rgb(62.495422%, 48.600769%, 44.572449%)" offset="0.613281"/><stop stop-opacity="1" stop-color="rgb(62.332153%, 48.376465%, 44.33136%)" offset="0.617187"/><stop stop-opacity="1" stop-color="rgb(62.167358%, 48.150635%, 44.088745%)" offset="0.621094"/><stop stop-opacity="1" stop-color="rgb(62.004089%, 47.926331%, 43.847656%)" offset="0.625"/><stop stop-opacity="1" stop-color="rgb(61.84082%, 47.702026%, 43.605042%)" offset="0.628906"/><stop stop-opacity="1" stop-color="rgb(61.677551%, 47.477722%, 43.363953%)" offset="0.632812"/><stop stop-opacity="1" stop-color="rgb(61.512756%, 47.253418%, 43.121338%)" offset="0.636719"/><stop stop-opacity="1" stop-color="rgb(61.349487%, 47.029114%, 42.880249%)" offset="0.640625"/><stop stop-opacity="1" stop-color="rgb(61.186218%, 46.80481%, 42.637634%)" offset="0.644531"/><stop stop-opacity="1" stop-color="rgb(61.022949%, 46.580505%, 42.39502%)" offset="0.648438"/><stop stop-opacity="1" stop-color="rgb(60.858154%, 46.356201%, 42.152405%)" offset="0.652344"/><stop stop-opacity="1" stop-color="rgb(60.694885%, 46.131897%, 41.911316%)" offset="0.65625"/><stop stop-opacity="1" stop-color="rgb(60.53009%, 45.907593%, 41.668701%)" offset="0.660156"/><stop stop-opacity="1" stop-color="rgb(60.366821%, 45.683289%, 41.427612%)" offset="0.664062"/><stop stop-opacity="1" stop-color="rgb(60.203552%, 45.457458%, 41.184998%)" offset="0.667969"/><stop stop-opacity="1" stop-color="rgb(60.040283%, 45.233154%, 40.943909%)" offset="0.671875"/><stop stop-opacity="1" stop-color="rgb(59.875488%, 45.00885%, 40.701294%)" offset="0.675781"/><stop stop-opacity="1" stop-color="rgb(59.712219%, 44.784546%, 40.460205%)" offset="0.679687"/><stop stop-opacity="1" stop-color="rgb(59.547424%, 44.560242%, 40.21759%)" offset="0.683594"/><stop stop-opacity="1" stop-color="rgb(59.384155%, 44.335938%, 39.974976%)" offset="0.6875"/><stop stop-opacity="1" stop-color="rgb(59.220886%, 44.111633%, 39.732361%)" offset="0.691406"/><stop stop-opacity="1" stop-color="rgb(59.057617%, 43.887329%, 39.491272%)" offset="0.695312"/><stop stop-opacity="1" stop-color="rgb(58.892822%, 43.663025%, 39.248657%)" offset="0.699219"/><stop stop-opacity="1" stop-color="rgb(58.729553%, 43.438721%, 39.007568%)" offset="0.703125"/><stop stop-opacity="1" stop-color="rgb(58.566284%, 43.214417%, 38.764954%)" offset="0.707031"/><stop stop-opacity="1" stop-color="rgb(58.403015%, 42.990112%, 38.523865%)" offset="0.710938"/><stop stop-opacity="1" stop-color="rgb(58.23822%, 42.765808%, 38.28125%)" offset="0.714844"/><stop stop-opacity="1" stop-color="rgb(58.074951%, 42.541504%, 38.040161%)" offset="0.71875"/><stop stop-opacity="1" stop-color="rgb(57.910156%, 42.315674%, 37.797546%)" offset="0.722656"/><stop stop-opacity="1" stop-color="rgb(57.746887%, 42.09137%, 37.554932%)" offset="0.726563"/><stop stop-opacity="1" stop-color="rgb(57.583618%, 41.867065%, 37.312317%)" offset="0.730469"/><stop stop-opacity="1" stop-color="rgb(57.420349%, 41.642761%, 37.071228%)" offset="0.734375"/><stop stop-opacity="1" stop-color="rgb(57.255554%, 41.418457%, 36.828613%)" offset="0.738281"/><stop stop-opacity="1" stop-color="rgb(57.092285%, 41.194153%, 36.587524%)" offset="0.742188"/><stop stop-opacity="1" stop-color="rgb(56.92749%, 40.969849%, 36.34491%)" offset="0.746094"/><stop stop-opacity="1" stop-color="rgb(56.764221%, 40.745544%, 36.103821%)" offset="0.75"/><stop stop-opacity="1" stop-color="rgb(56.600952%, 40.52124%, 35.861206%)" offset="0.753906"/><stop stop-opacity="1" stop-color="rgb(56.437683%, 40.296936%, 35.620117%)" offset="0.757812"/><stop stop-opacity="1" stop-color="rgb(56.272888%, 40.072632%, 35.377502%)" offset="0.761719"/><stop stop-opacity="1" stop-color="rgb(56.109619%, 39.848328%, 35.134888%)" offset="0.765625"/><stop stop-opacity="1" stop-color="rgb(55.94635%, 39.624023%, 34.892273%)" offset="0.769531"/><stop stop-opacity="1" stop-color="rgb(55.783081%, 39.399719%, 34.651184%)" offset="0.773437"/><stop stop-opacity="1" stop-color="rgb(55.618286%, 39.173889%, 34.408569%)" offset="0.777344"/><stop stop-opacity="1" stop-color="rgb(55.455017%, 38.949585%, 34.16748%)" offset="0.78125"/><stop stop-opacity="1" stop-color="rgb(55.290222%, 38.725281%, 33.924866%)" offset="0.785156"/><stop stop-opacity="1" stop-color="rgb(55.126953%, 38.500977%, 33.683777%)" offset="0.789062"/><stop stop-opacity="1" stop-color="rgb(54.963684%, 38.276672%, 33.441162%)" offset="0.792969"/><stop stop-opacity="1" stop-color="rgb(54.800415%, 38.052368%, 33.200073%)" offset="0.796875"/><stop stop-opacity="1" stop-color="rgb(54.63562%, 37.828064%, 32.957458%)" offset="0.800781"/><stop stop-opacity="1" stop-color="rgb(54.472351%, 37.60376%, 32.714844%)" offset="0.804688"/><stop stop-opacity="1" stop-color="rgb(54.309082%, 37.379456%, 32.472229%)" offset="0.808594"/><stop stop-opacity="1" stop-color="rgb(54.145813%, 37.155151%, 32.23114%)" offset="0.8125"/><stop stop-opacity="1" stop-color="rgb(53.981018%, 36.930847%, 31.988525%)" offset="0.816406"/><stop stop-opacity="1" stop-color="rgb(53.817749%, 36.706543%, 31.747437%)" offset="0.820313"/><stop stop-opacity="1" stop-color="rgb(53.652954%, 36.482239%, 31.504822%)" offset="0.824219"/><stop stop-opacity="1" stop-color="rgb(53.489685%, 36.257935%, 31.263733%)" offset="0.828125"/><stop stop-opacity="1" stop-color="rgb(53.326416%, 36.032104%, 31.021118%)" offset="0.832031"/><stop stop-opacity="1" stop-color="rgb(53.163147%, 35.8078%, 30.780029%)" offset="0.835938"/><stop stop-opacity="1" stop-color="rgb(52.998352%, 35.583496%, 30.537415%)" offset="0.839844"/><stop stop-opacity="1" stop-color="rgb(52.835083%, 35.359192%, 30.296326%)" offset="0.84375"/><stop stop-opacity="1" stop-color="rgb(52.670288%, 35.134888%, 30.053711%)" offset="0.847656"/><stop stop-opacity="1" stop-color="rgb(52.507019%, 34.910583%, 29.811096%)" offset="0.851562"/><stop stop-opacity="1" stop-color="rgb(52.502441%, 34.90448%, 29.804993%)" offset="0.859375"/><stop stop-opacity="1" stop-color="rgb(52.49939%, 34.899902%, 29.798889%)" offset="0.875"/><stop stop-opacity="1" stop-color="rgb(52.49939%, 34.899902%, 29.798889%)" offset="0.994153"/><stop stop-opacity="1" stop-color="rgb(52.49939%, 34.899902%, 29.798889%)" offset="1"/></linearGradient><clipPath id="id4"><path d="M 153.265625 108.289062 L 175.015625 108.289062 L 175.015625 130.039062 L 153.265625 130.039062 Z M 153.265625 108.289062 " clip-rule="nonzero"/></clipPath><clipPath id="id5"><path d="M 250.65625 194.890625 L 272.40625 194.890625 L 272.40625 216.640625 L 250.65625 216.640625 Z M 250.65625 194.890625 " clip-rule="nonzero"/></clipPath><clipPath id="id6"><path d="M 185.421875 119.007812 L 207.171875 119.007812 L 207.171875 166.257812 L 185.421875 166.257812 Z M 185.421875 119.007812 " clip-rule="nonzero"/></clipPath></defs><g clip-path="url(#id1)"><g clip-path="url(#id2)"><path fill="url(#id3)" d="M 95.492188 119.011719 L 95.492188 226.996094 L 149.484375 226.996094 L 149.484375 119.011719 Z M 95.492188 119.011719 " fill-rule="nonzero"/></g></g><g clip-path="url(#id4)"><path fill="#b55626" d="M 153.265625 108.289062 L 175.015625 108.289062 L 175.015625 130.039062 L 153.265625 130.039062 L 153.265625 108.289062 " fill-opacity="1" fill-rule="nonzero"/></g><g clip-path="url(#id5)"><path fill="#b55626" d="M 250.65625 194.890625 L 272.40625 194.890625 L 272.40625 216.640625 L 250.65625 216.640625 L 250.65625 194.890625 " fill-opacity="1" fill-rule="nonzero"/></g><g clip-path="url(#id6)"><path fill="#b55626" d="M 185.421875 119.007812 L 207.171875 119.007812 L 207.171875 166.253906 L 185.421875 166.253906 L 185.421875 119.007812 " fill-opacity="1" fill-rule="nonzero"/></g><g fill="#2e2e2e" fill-opacity="1"><g transform="translate(140.634823, 193.067012)"><g><path d="M 13.15625 -17.015625 C 14.007812 -17.015625 14.796875 -16.835938 15.515625 -16.484375 C 16.234375 -16.128906 16.800781 -15.628906 17.21875 -14.984375 C 17.644531 -14.347656 17.859375 -13.632812 17.859375 -12.84375 C 17.859375 -10.75 16.910156 -9.425781 15.015625 -8.875 L 15.015625 -8.78125 C 17.171875 -8.28125 18.25 -6.863281 18.25 -4.53125 C 18.25 -3.632812 18.03125 -2.84375 17.59375 -2.15625 C 17.15625 -1.476562 16.554688 -0.945312 15.796875 -0.5625 C 15.046875 -0.1875 14.21875 0 13.3125 0 L 1.828125 0 L 1.828125 -17.015625 Z M 7.296875 -10.390625 L 11.0625 -10.390625 C 11.414062 -10.390625 11.710938 -10.515625 11.953125 -10.765625 C 12.191406 -11.023438 12.3125 -11.34375 12.3125 -11.71875 L 12.3125 -11.96875 C 12.3125 -12.332031 12.1875 -12.640625 11.9375 -12.890625 C 11.695312 -13.148438 11.40625 -13.28125 11.0625 -13.28125 L 7.296875 -13.28125 Z M 7.296875 -3.953125 L 11.453125 -3.953125 C 11.816406 -3.953125 12.117188 -4.078125 12.359375 -4.328125 C 12.597656 -4.585938 12.71875 -4.910156 12.71875 -5.296875 L 12.71875 -5.546875 C 12.71875 -5.921875 12.597656 -6.234375 12.359375 -6.484375 C 12.117188 -6.742188 11.816406 -6.875 11.453125 -6.875 L 7.296875 -6.875 Z M 7.296875 -3.953125 "/></g></g></g><g fill="#2e2e2e" fill-opacity="1"><g transform="translate(157.726053, 193.067012)"><g><path d="M 18.765625 -6.84375 C 18.765625 -4.519531 18.03125 -2.75 16.5625 -1.53125 C 15.101562 -0.3125 13.019531 0.296875 10.3125 0.296875 C 7.601562 0.296875 5.507812 -0.3125 4.03125 -1.53125 C 2.5625 -2.75 1.828125 -4.519531 1.828125 -6.84375 L 1.828125 -17.015625 L 7.296875 -17.015625 L 7.296875 -6.921875 C 7.296875 -5.960938 7.550781 -5.195312 8.0625 -4.625 C 8.570312 -4.0625 9.316406 -3.78125 10.296875 -3.78125 C 11.265625 -3.78125 12.007812 -4.066406 12.53125 -4.640625 C 13.050781 -5.222656 13.3125 -5.984375 13.3125 -6.921875 L 13.3125 -17.015625 L 18.765625 -17.015625 Z M 18.765625 -6.84375 "/></g></g></g><g fill="#2e2e2e" fill-opacity="1"><g transform="translate(176.177692, 193.067012)"><g><path d="M 2.078125 0 L 2.078125 -17.015625 L 7.546875 -17.015625 L 7.546875 0 Z M 2.078125 0 "/></g></g></g><g fill="#2e2e2e" fill-opacity="1"><g transform="translate(183.647135, 193.067012)"><g><path d="M 1.828125 -17.015625 L 7.296875 -17.015625 L 7.296875 -4.359375 L 16.03125 -4.359375 L 16.03125 0 L 1.828125 0 Z M 1.828125 -17.015625 "/></g></g></g><g fill="#2e2e2e" fill-opacity="1"><g transform="translate(197.992811, 193.067012)"><g><path d="M 9.203125 -17.015625 C 15.148438 -17.015625 18.125 -14.179688 18.125 -8.515625 C 18.125 -2.835938 15.148438 0 9.203125 0 L 1.828125 0 L 1.828125 -17.015625 Z M 7.296875 -4.078125 L 9.109375 -4.078125 C 11.398438 -4.078125 12.546875 -5.304688 12.546875 -7.765625 L 12.546875 -9.25 C 12.546875 -11.707031 11.398438 -12.9375 9.109375 -12.9375 L 7.296875 -12.9375 Z M 7.296875 -4.078125 "/></g></g></g><g fill="#2e2e2e" fill-opacity="1"><g transform="translate(215.084042, 193.067012)"><g/></g></g><g fill="#2e2e2e" fill-opacity="1"><g transform="translate(221.168343, 193.067012)"><g><path d="M 1.828125 -17.015625 L 15.578125 -17.015625 L 15.578125 -12.9375 L 7.296875 -12.9375 L 7.296875 -10.015625 L 14.421875 -10.015625 L 14.421875 -6.109375 L 7.296875 -6.109375 L 7.296875 0 L 1.828125 0 Z M 1.828125 -17.015625 "/></g></g></g><g fill="#2e2e2e" fill-opacity="1"><g transform="translate(235.514019, 193.067012)"><g><path d="M 10.296875 -17.3125 C 13.222656 -17.3125 15.484375 -16.5625 17.078125 -15.0625 C 18.679688 -13.5625 19.484375 -11.378906 19.484375 -8.515625 C 19.484375 -5.640625 18.679688 -3.453125 17.078125 -1.953125 C 15.484375 -0.453125 13.222656 0.296875 10.296875 0.296875 C 7.359375 0.296875 5.09375 -0.445312 3.5 -1.9375 C 1.90625 -3.4375 1.109375 -5.628906 1.109375 -8.515625 C 1.109375 -11.398438 1.90625 -13.585938 3.5 -15.078125 C 5.09375 -16.566406 7.359375 -17.3125 10.296875 -17.3125 Z M 10.296875 -13.234375 C 9.117188 -13.234375 8.222656 -12.878906 7.609375 -12.171875 C 7.003906 -11.460938 6.703125 -10.503906 6.703125 -9.296875 L 6.703125 -7.71875 C 6.703125 -6.507812 7.003906 -5.550781 7.609375 -4.84375 C 8.222656 -4.132812 9.117188 -3.78125 10.296875 -3.78125 C 11.460938 -3.78125 12.351562 -4.132812 12.96875 -4.84375 C 13.59375 -5.550781 13.90625 -6.507812 13.90625 -7.71875 L 13.90625 -9.296875 C 13.90625 -10.503906 13.59375 -11.460938 12.96875 -12.171875 C 12.351562 -12.878906 11.460938 -13.234375 10.296875 -13.234375 Z M 10.296875 -13.234375 "/></g></g></g><g fill="#2e2e2e" fill-opacity="1"><g transform="translate(253.96566, 193.067012)"><g><path d="M 17.984375 -11.796875 C 17.984375 -10.753906 17.703125 -9.8125 17.140625 -8.96875 C 16.578125 -8.132812 15.757812 -7.519531 14.6875 -7.125 L 18.46875 0 L 12.34375 0 L 9.328125 -6.203125 L 7.296875 -6.203125 L 7.296875 0 L 1.828125 0 L 1.828125 -17.015625 L 12.25 -17.015625 C 13.46875 -17.015625 14.507812 -16.78125 15.375 -16.3125 C 16.238281 -15.84375 16.890625 -15.207031 17.328125 -14.40625 C 17.765625 -13.601562 17.984375 -12.734375 17.984375 -11.796875 Z M 12.421875 -11.578125 C 12.421875 -12.023438 12.269531 -12.394531 11.96875 -12.6875 C 11.675781 -12.988281 11.316406 -13.140625 10.890625 -13.140625 L 7.296875 -13.140625 L 7.296875 -10 L 10.890625 -10 C 11.316406 -10 11.675781 -10.148438 11.96875 -10.453125 C 12.269531 -10.753906 12.421875 -11.128906 12.421875 -11.578125 Z M 12.421875 -11.578125 "/></g></g></g><g fill="#2e2e2e" fill-opacity="1"><g transform="translate(149.323795, 209.360012)"><g><path d="M 2.75 0 L 4.488281 0 L 4.488281 -6.015625 L 6.914062 -6.015625 L 6.914062 -7.644531 L 0.328125 -7.644531 L 0.328125 -6.015625 L 2.75 -6.015625 Z M 2.75 0 "/></g></g></g><g fill="#2e2e2e" fill-opacity="1"><g transform="translate(158.064932, 209.360012)"><g><path d="M 5.644531 0 L 7.382812 0 L 7.382812 -7.644531 L 5.644531 -7.644531 L 5.644531 -4.707031 L 2.652344 -4.707031 L 2.652344 -7.644531 L 0.917969 -7.644531 L 0.917969 0 L 2.652344 0 L 2.652344 -3.078125 L 5.644531 -3.078125 Z M 5.644531 0 "/></g></g></g><g fill="#2e2e2e" fill-opacity="1"><g transform="translate(167.864349, 209.360012)"><g><path d="M 0.917969 0 L 6.0625 0 L 6.0625 -1.472656 L 2.644531 -1.472656 L 2.644531 -3.144531 L 5.644531 -3.144531 L 5.644531 -4.597656 L 2.644531 -4.597656 L 2.644531 -6.179688 L 5.941406 -6.179688 L 5.941406 -7.644531 L 0.917969 -7.644531 Z M 0.917969 0 "/></g></g></g><g fill="#2e2e2e" fill-opacity="1"><g transform="translate(175.983603, 209.360012)"><g/></g></g><g fill="#2e2e2e" fill-opacity="1"><g transform="translate(180.055196, 209.360012)"><g><path d="M 2.566406 0 L 4.28125 0 L 6.015625 -4.945312 L 7.753906 0 L 9.457031 0 L 11.925781 -7.644531 L 10.089844 -7.644531 L 9.359375 -5.316406 L 8.539062 -2.773438 L 7.65625 -5.316406 L 6.835938 -7.644531 L 5.1875 -7.644531 L 4.367188 -5.316406 L 3.496094 -2.804688 L 2.6875 -5.316406 L 1.953125 -7.644531 L 0.109375 -7.644531 Z M 2.566406 0 "/></g></g></g><g fill="#2e2e2e" fill-opacity="1"><g transform="translate(193.585891, 209.360012)"><g><path d="M 0.917969 0 L 6.0625 0 L 6.0625 -1.472656 L 2.644531 -1.472656 L 2.644531 -3.144531 L 5.644531 -3.144531 L 5.644531 -4.597656 L 2.644531 -4.597656 L 2.644531 -6.179688 L 5.941406 -6.179688 L 5.941406 -7.644531 L 0.917969 -7.644531 Z M 0.917969 0 "/></g></g></g><g fill="#2e2e2e" fill-opacity="1"><g transform="translate(201.705145, 209.360012)"><g><path d="M 0.917969 0 L 6.0625 0 L 6.0625 -1.472656 L 2.644531 -1.472656 L 2.644531 -3.144531 L 5.644531 -3.144531 L 5.644531 -4.597656 L 2.644531 -4.597656 L 2.644531 -6.179688 L 5.941406 -6.179688 L 5.941406 -7.644531 L 0.917969 -7.644531 Z M 0.917969 0 "/></g></g></g><g fill="#2e2e2e" fill-opacity="1"><g transform="translate(209.824401, 209.360012)"><g><path d="M 0.917969 0 L 2.652344 0 L 2.652344 -3.089844 L 3.570312 -3.089844 C 3.710938 -3.089844 3.832031 -3.089844 3.964844 -3.101562 L 5.601562 0 L 7.621094 0 L 5.558594 -3.746094 C 5.863281 -4.039062 6.09375 -4.421875 6.289062 -4.925781 L 7.347656 -7.644531 L 5.472656 -7.644531 L 4.75 -5.65625 C 4.488281 -4.9375 4.171875 -4.707031 3.308594 -4.707031 L 2.652344 -4.707031 L 2.652344 -7.644531 L 0.917969 -7.644531 Z M 0.917969 0 "/></g></g></g><g fill="#2e2e2e" fill-opacity="1"><g transform="translate(219.263785, 209.360012)"><g><path d="M 0.917969 0 L 6.0625 0 L 6.0625 -1.472656 L 2.644531 -1.472656 L 2.644531 -3.144531 L 5.644531 -3.144531 L 5.644531 -4.597656 L 2.644531 -4.597656 L 2.644531 -6.179688 L 5.941406 -6.179688 L 5.941406 -7.644531 L 0.917969 -7.644531 Z M 0.917969 0 "/></g></g></g><g fill="#2e2e2e" fill-opacity="1"><g transform="translate(227.383036, 209.360012)"><g><path d="M 0.917969 0 L 2.644531 0 L 2.644531 -4.683594 L 6.015625 0 L 7.492188 0 L 7.492188 -7.644531 L 5.765625 -7.644531 L 5.765625 -2.992188 L 2.390625 -7.644531 L 0.917969 -7.644531 Z M 0.917969 0 "/></g></g></g><g fill="#2e2e2e" fill-opacity="1"><g transform="translate(237.291558, 209.360012)"><g><path d="M 0.917969 0 L 3.941406 0 C 6.355469 0 7.972656 -1.539062 7.972656 -3.820312 C 7.972656 -6.09375 6.355469 -7.644531 3.941406 -7.644531 L 0.917969 -7.644531 Z M 2.652344 -1.59375 L 2.652344 -6.050781 L 3.886719 -6.050781 C 5.261719 -6.050781 6.191406 -5.164062 6.191406 -3.820312 C 6.191406 -2.480469 5.261719 -1.59375 3.910156 -1.59375 Z M 2.652344 -1.59375 "/></g></g></g></svg>